<svg width="70" height="70" viewBox="0 0 70 70" fill="none" xmlns="http://www.w3.org/2000/svg">
<rect width="70" height="70" rx="12.9098" fill="white"/>
<rect x="12.792" y="23.5605" width="6.30331" height="16.1054" transform="rotate(44.3998 12.792 23.5605)" fill="#210F4A"/>
<rect x="17.3213" y="41.8076" width="6.30331" height="15.989" transform="rotate(134.586 17.3213 41.8076)" fill="#210F4A"/>
<rect width="6.30331" height="16.1054" transform="matrix(-0.714475 0.699661 0.699661 0.714475 21.8105 23.5605)" fill="#210F4A"/>
<rect width="6.30331" height="15.989" transform="matrix(0.701976 0.7122 0.7122 -0.701976 17.2812 41.8076)" fill="#210F4A"/>
<rect x="48.4248" y="23.6578" width="6.30331" height="16.1054" transform="rotate(44.3998 48.4248 23.6578)" fill="#210F4A"/>
<rect x="52.9541" y="41.9049" width="6.30331" height="15.989" transform="rotate(134.586 52.9541 41.9049)" fill="#210F4A"/>
<rect x="23.6094" y="21.8589" width="6.30331" height="16.1054" transform="rotate(-45.6002 23.6094 21.8589)" fill="#210F4A"/>
<rect x="41.8564" y="17.3296" width="6.30331" height="15.989" transform="rotate(44.5858 41.8564 17.3296)" fill="#210F4A"/>
<rect width="6.30331" height="16.1054" transform="matrix(0.699661 0.714475 0.714475 -0.699661 23.6094 48.0838)" fill="#210F4A"/>
<rect width="6.30331" height="15.989" transform="matrix(0.7122 -0.701976 -0.701976 -0.7122 41.8564 52.6132)" fill="#210F4A"/>
<rect width="6.30331" height="16.1054" transform="matrix(-0.714475 0.699661 0.699661 0.714475 57.4434 23.5605)" fill="#210F4A"/>
<rect width="6.30331" height="15.989" transform="matrix(0.701976 0.7122 0.7122 -0.701976 52.9141 41.8076)" fill="#210F4A"/>
<rect width="6.30331" height="16.1054" transform="matrix(0.699661 0.714475 0.714475 -0.699661 23.6094 12.8405)" fill="#210F4A"/>
<rect width="6.30331" height="15.989" transform="matrix(0.7122 -0.701976 -0.701976 -0.7122 41.8564 17.3699)" fill="#210F4A"/>
<rect x="23.6094" y="57.1024" width="6.30331" height="16.1054" transform="rotate(-45.6002 23.6094 57.1024)" fill="#210F4A"/>
<rect x="41.8564" y="52.573" width="6.30331" height="15.989" transform="rotate(44.5858 41.8564 52.573)" fill="#210F4A"/>
</svg>
